Patient4_TMGait_0pt7_02_left_36_EMG.mot
version=1
nRows=26
nColumns=33
inDegrees=no
endheader
time	1LAddLong	2LGlutMax	3LGlutMed	4LIliopsoas	5LSemiMemb	6LBicFemLong	7LRecFem	8LVastMed	9LVastLat	10LGasMed	11LTibAnt	12lTibPost	13LPeroneusLong	14LSol	15LExtDigLong	16LFlexDigLong	17RAddLong	18RGlutMax	19RGlutMed	20RIliopsoas	21RSemiMemb	22RBicFemLong	23RRecFem	24RVastMed	25RVastLat	26RGasMed	27RTibAnt	28RTibPost	29RPeroneusLong	30RSol	31RExtDigLong	32RFlexDigLong
41.19	0.007629	-0.068207	-0.027466	0.005646	-0.011139	-0.045471	-0.092621	0.002441	0.21149	-0.054016	-0.16785	0.002594	0.061798	-0.068207	0.088806	-0.009003	0.021973	-0.23483	0.53085	0.006866	0.014648	0.42725	-0.15595	-0.039673	0.14862	0.012207	-0.037842	-0.005188	-0.22614	-0.15442	0.000916	0.011749
41.191	0.012512	-0.067749	-0.024414	-0.001526	-0.018616	-0.02121	-0.1268	0.004425	0.21561	-0.056	-0.054932	0.014954	0.13306	-0.014648	0.25101	-0.006714	0.024414	-0.29602	0.7605	-0.049133	0.014496	0.18494	0.093231	-0.057983	0.15015	-0.006104	-0.05722	-0.00885	0.60074	-0.015411	-0.000305	0.007019
41.192	0.008087	-0.050201	-0.027618	-0.003662	-0.018005	-0.021667	-0.096588	0.005798	0.21347	-0.058594	0.13138	-0.003204	0.13153	-0.02182	0.44296	-0.006561	0.044403	-0.22232	-0.070801	-0.028992	0.014343	0.035553	0.15915	-0.099335	0.065308	-0.024719	-0.10605	-0.010529	0.13504	0.029449	-0.00351	0.005341
41.193	0.011902	-0.11383	-0.02182	-0.016479	-0.014648	-0.041351	-0.026398	0.006714	0.20721	-0.039673	0.16541	0.001373	0.049133	-0.022888	0.66086	-0.006409	0.067596	-0.21393	0.18814	-0.068665	-0.029907	0.073547	0.11597	-0.019684	0.068817	-0.030518	0.090485	-0.008545	-0.38208	0.095978	-0.001068	-0.002289
41.194	0.010376	-0.11749	-0.02533	-0.0354	-0.024414	-0.054626	-0.02182	0.003967	0.19852	-0.033112	0.13138	-0.004578	0.042419	-0.052185	0.2565	-0.000305	0.04715	-0.30182	0.019836	-0.031586	-0.03952	0.080719	0.03479	0.070343	0.10788	-0.030365	0.1004	-0.008698	-0.17746	0.14542	-0.001373	-0.018768
41.195	0.00946	-0.13458	-0.032501	0.005188	-0.027924	-0.058136	-0.056915	-0.004272	0.19547	-0.030212	0.11673	-0.009003	0.032043	-0.055389	-0.44006	0.001831	0.042267	-0.40894	-0.59967	0.006409	-0.023346	0.021667	0.076752	-0.13489	0.14694	0.010071	0.033569	-0.00351	0.28915	-0.024414	-0.001526	-0.005035
41.196	0.001068	-0.15732	-0.047302	0.006866	-0.009003	-0.086517	-0.13382	-0.003815	0.19913	0.002289	0.086212	0.002594	0.034332	-0.078125	-0.46432	-0.00946	0.001984	-0.35675	-0.76828	-0.037079	-0.095215	-0.10956	-0.025024	-0.039673	0.024109	0.049744	0.013123	-0.002136	0.4863	-0.066376	-0.004578	-0.003357
41.197	0.012665	-0.16007	-0.060272	0.010223	-0.011597	-0.066986	-0.15839	-0.001678	0.18082	0.024872	-0.032654	0.004883	0.022125	-0.05661	-0.24963	-0.007782	0.00351	-0.34973	-0.69672	-0.097504	-0.10117	-0.16144	-0.25299	-0.014343	-0.018921	0.042267	0.038452	-0.007172	0.24399	0.04364	0.000153	-0.012817
41.198	0.009766	-0.20142	-0.054321	0.03418	-0.022888	-0.032043	-0.12024	-0.002899	0.18097	0.050201	-0.045624	-0.00061	-0.050049	-0.099792	-0.30319	-0.010071	-0.015411	-0.30502	-0.24414	-0.037231	-0.40848	-0.33768	-0.33386	-0.18448	-0.023499	0.008392	0.015411	-0.008392	-0.082245	0.11673	0.000763	0.000458
41.199	0.005951	-0.19974	-0.023651	0.03891	-0.033722	-0.03479	-0.066071	-0.004272	0.17899	0.03006	-0.050507	0.00061	-0.061493	-0.12253	-0.078125	0.005493	-0.01358	-0.34836	-0.54077	0.026245	-0.37521	-0.4245	-0.29984	-0.16235	-0.064545	-0.029297	-0.12695	-0.012512	-0.33722	0.13062	-0.012207	-0.007172
41.2	-0.002136	-0.23346	0.005188	-0.003204	-0.091858	-0.050659	-0.083008	-0.00351	0.16846	0.000763	0.032959	-0.004272	-0.05127	-0.1445	-0.0177	0.004883	-0.011292	-0.34927	-0.12619	0.11108	-0.15625	-0.35172	-0.1535	-0.17212	-0.12146	-0.010986	-0.28534	-0.003967	-0.98007	0.043335	0.001526	-0.004272
41.201	0.006866	-0.21912	0	-0.010223	-0.046234	-0.058136	-0.1268	0	0.15656	-0.030365	0.029449	-0.002747	0.020599	-0.091858	0.021667	0.013733	-0.005188	-0.25406	0.33615	0.040741	-0.01709	-0.17181	0.007324	-0.09079	-0.039673	-0.00061	-0.2182	0.000305	-0.94696	0.024414	-0.000763	-0.016632
41.202	0.011597	-0.23819	-0.009613	0.002441	0.01236	-0.07431	-0.12039	0.00824	0.15854	-0.037537	-0.075226	0.002289	0.09613	-0.053101	-0.029602	0.006104	-0.001373	-0.17029	0.26657	-0.071411	0.007477	-0.028687	0.054169	-0.043488	0.14343	-0.014496	-0.066528	-0.006866	-0.29999	0.006256	0.011597	-0.013733
41.203	0.013733	-0.22751	-0.010223	0.006104	0.014343	-0.059052	-0.088959	0.009613	0.15976	-0.015259	-0.056763	0.005951	0.087433	-0.012207	0.068665	0.002899	0.00824	-0.21942	0.28931	-0.11032	0.14832	0.05661	-0.012054	-0.1207	0.27695	-0.007629	0.12268	-0.037689	-0.61951	-0.005493	0.00946	-0.002136
41.204	0.019073	-0.25207	0.033264	0.017242	-0.002136	-0.043182	-0.10162	0.005188	0.15701	0.002747	0.051117	0.001526	-0.022888	0.021057	0.10834	0.002136	-0.009918	-0.19333	0.30197	-0.076599	0.15518	0.046387	-0.16266	-0.06897	0.29617	-0.037842	0.086517	-0.12634	-0.60837	0.020142	-0.000916	0.00885
41.205	0.009918	-0.24139	0.02182	0.03479	-0.005646	-0.054321	0.053406	0.000763	0.15045	0.028229	0.04364	-0.001373	-0.005798	0.013885	-0.13886	-0.008545	-0.018158	-0.11505	0.37598	-0.007935	0.0177	-0.065308	-0.03479	-0.027161	0.1738	-0.046387	0.051575	-0.26489	0.29785	0.11719	-0.004272	0.009766
41.206	0.023041	-0.21652	0.031128	0.045471	-0.011597	-0.06485	0.1181	-0.00061	0.15457	-0.036011	0.059509	0.001984	0.03891	-0.021057	-0.21164	-0.009918	-0.002289	-0.023346	-0.32425	0.003052	-0.037842	-0.14008	-0.027771	0.1416	0.14877	-0.044403	0.053101	0.22415	0.9967	-0.041046	0.00061	0.006866
41.207	0.011749	-0.20325	0.011139	0.06012	-0.015411	-0.073395	0.090027	0.002136	0.1561	-0.10407	0.14481	0.002289	0.010529	-0.003815	-0.074463	-0.001831	0.005188	0.005188	-0.59937	0.098419	-0.043793	-0.1088	-0.016785	0.22995	0.23254	-0.037689	0.050507	0.010223	0.56854	0.001984	-0.00473	-0.003204
41.208	0.014801	-0.20065	0.001373	0.055542	-0.014343	-0.056	0.075378	0.006256	0.15076	-0.094452	0.19699	0.001373	0.010681	0.004272	0.61722	-0.006256	0.008087	-0.014648	-0.25909	0.053864	-0.042572	0.0177	0.051117	0.24735	-0.22675	-0.023041	0.073547	-0.29984	0.40359	0.29083	-0.000763	-0.000916
41.209	0.010986	-0.1944	-0.005341	0.024109	-0.016022	-0.068207	0.023804	0.010223	0.13123	-0.027161	0.10452	-0.001221	0.032654	-0.065002	-0.057068	-0.000153	0.005646	0.069885	0.25406	0.068359	-0.027771	0.027313	0.1799	0.11261	-0.45792	-0.015411	0.021057	0.34103	-0.53589	0.20996	-0.000153	-0.002441
41.21	0.006104	-0.15289	0.015564	-0.012665	-0.021362	-0.069733	0.002747	0.003052	0.13825	0.016785	0.016785	-0.001068	-0.034943	-0.12329	0.027771	0.010681	0.012665	0.058289	0.5983	0.22553	0.018463	0.04303	0.093231	-0.001373	-0.14145	0.000763	-0.036163	0.20233	-0.97794	0.094299	-0.000458	-0.007935
41.211	0.003815	-0.1918	-0.010376	-0.032806	-0.021515	-0.082855	-0.054932	0.008698	0.12894	0.048218	0.007019	-0.00061	0.027924	-0.049744	0.18494	0.006104	-0.005493	-0.10574	-0.1976	0.27741	0.045319	0.13001	0.055237	-0.027161	0.24139	-0.023651	0.048676	-0.005035	-0.067596	-0.012665	-0.001221	-0.007629
41.212	0.009918	-0.13519	-0.077972	-0.001984	-0.023804	-0.081329	-0.13763	0.011902	0.13046	0.028229	-0.10941	0.005035	0.1178	0.018463	0.1413	0.009613	-0.001831	-0.14923	-0.31906	0.20935	0.058441	0.17914	0.10193	-0.02655	0.30487	-0.029297	0.11749	-0.057373	0.23575	-0.091248	0.002289	0.000305
41.213	0.007019	-0.10681	-0.05722	0.019531	-0.01709	-0.1059	-0.1918	0.00824	0.12985	0.022583	0.018921	0.000916	0.11719	0.041046	-0.26245	-0.001373	0.00885	-0.22201	0.05661	0.077057	0.04303	0.19959	0.090485	-0.049896	0.25497	0.028687	0.11795	-0.056458	1.4665	-0.10147	0.000458	-0.004425
41.214	0.013123	-0.081177	-0.028992	0.011902	-0.0177	-0.087128	-0.2034	-0.002899	0.13275	0.015259	0.051422	0.007324	0.10452	-0.028992	-0.20233	0.000305	0.020142	-0.23346	-0.15121	0.062866	0.051422	0.13504	0.08728	-0.032043	0.13596	0.03006	0.30594	0.054932	1.6252	-0.016022	-0.000305	-0.010529
41.215	0.012512	-0.072174	-0.022125	-0.010529	-0.017548	-0.090637	-0.29434	0	0.13382	-0.006561	-0.045929	0.002594	0.085754	-0.112	-0.24429	0.006866	0.011292	-0.2449	-0.52124	0.054169	0.014496	-0.054321	0.11856	0.028839	0.042267	0.014801	0.54077	0.062408	-0.1918	-0.22675	-0.001526	-0.016632
